<?xml version="1.0" encoding="iso-8859-1"?>
<!-- Generator: Adobe Illustrator 16.0.0, SVG Export Plug-In . SVG Version: 6.00 Build 0)  -->
<!DOCTYPE svg PUBLIC "-//W3C//DTD SVG 1.1//EN" "http://www.w3.org/Graphics/SVG/1.1/DTD/svg11.dtd">
<svg version="1.1" id="Capa_1" xmlns="http://www.w3.org/2000/svg" xmlns:xlink="http://www.w3.org/1999/xlink" x="0px" y="0px"
	 width="45.902px" height="45.902px" viewBox="0 0 45.902 45.902" style="enable-background:new 0 0 45.902 45.902;"
	 xml:space="preserve">
<g>
	<path d="M44.396,24.546l1.506-1.507l-1.506-1.507l-0.002-0.001l-5.332-5.333c-0.834-0.834-2.185-0.834-3.019,0
		c-0.832,0.833-0.832,2.183,0,3.017l1.692,1.691h-5.512c-0.262-0.112-0.549-0.178-0.851-0.178h-6.2V8.168l1.336,1.336
		c0.834,0.833,2.184,0.833,3.018,0c0.832-0.833,0.832-2.184,0-3.017L24.55,1.51c0,0-0.002-0.001-0.004-0.003L23.04,0l-1.508,1.507
		C21.531,1.509,21.53,1.51,21.53,1.51l-5.332,5.332c-0.834,0.833-0.834,2.184,0,3.017c0.416,0.417,0.963,0.625,1.508,0.625
		c0.547,0,1.092-0.208,1.509-0.625l1.691-1.691v5.512c-0.113,0.26-0.178,0.548-0.178,0.849v6.2H8.169l1.336-1.336
		c0.833-0.834,0.833-2.184,0-3.017c-0.833-0.834-2.183-0.834-3.017,0l-4.977,4.976c-0.001,0.002-0.002,0.003-0.002,0.003
		l-1.508,1.507l1.508,1.507c0,0,0.001,0.002,0.002,0.003l5.332,5.332c0.417,0.416,0.963,0.625,1.508,0.625
		c0.547,0,1.092-0.209,1.509-0.625c0.833-0.833,0.833-2.185,0-3.017l-1.691-1.691h5.512c0.261,0.111,0.547,0.178,0.849,0.178h6.2
		v12.561l-1.336-1.336c-0.833-0.834-2.184-0.834-3.017,0c-0.834,0.834-0.834,2.184,0,3.018l4.977,4.977c0,0,0.001,0.002,0.002,0.002
		l1.508,1.508l1.506-1.508c0.002,0,0.002-0.002,0.002-0.002l5.333-5.332c0.833-0.834,0.833-2.184,0-3.017
		c-0.833-0.834-2.183-0.834-3.017,0l-1.691,1.69v-5.512c0.113-0.261,0.178-0.548,0.178-0.85v-6.199h12.561l-1.336,1.336
		c-0.832,0.834-0.832,2.184,0,3.018c0.418,0.416,0.963,0.625,1.509,0.625s1.092-0.209,1.509-0.625l4.977-4.978
		C44.394,24.548,44.396,24.546,44.396,24.546z"/>
</g>
<g>
</g>
<g>
</g>
<g>
</g>
<g>
</g>
<g>
</g>
<g>
</g>
<g>
</g>
<g>
</g>
<g>
</g>
<g>
</g>
<g>
</g>
<g>
</g>
<g>
</g>
<g>
</g>
<g>
</g>
</svg>
