<?xml version="1.0" encoding="iso-8859-1"?>
<!-- Generator: Adobe Illustrator 19.0.0, SVG Export Plug-In . SVG Version: 6.00 Build 0)  -->
<svg version="1.1" id="Capa_1" xmlns="http://www.w3.org/2000/svg" xmlns:xlink="http://www.w3.org/1999/xlink" x="0px" y="0px"
	 viewBox="0 0 512 512" style="enable-background:new 0 0 512 512;" xml:space="preserve">
<g>
	<g>
		<g>
			<polygon points="192,192 256,192 256,160 160,160 160,256 192,256 			"/>
			<polygon points="320,320 256,320 256,352 352,352 352,256 320,256 			"/>
			<polygon points="400,0 400,32 457.376,32 371.712,117.664 394.336,140.288 480,54.624 480,112 512,112 512,0 			"/>
			<rect x="333.096" y="146.913" transform="matrix(-0.7071 -0.7071 0.7071 -0.7071 480.7477 524.9584)" width="32" height="32"/>
			<rect x="287.821" y="192.163" transform="matrix(0.7071 0.7071 -0.7071 0.7071 236.1801 -153.8643)" width="32" height="32"/>
			<polygon points="117.664,371.712 32,457.376 32,400 0,400 0,512 112,512 112,480 54.624,480 140.288,394.336 			"/>
			<rect x="146.904" y="333.087" transform="matrix(-0.7071 -0.7071 0.7071 -0.7071 31.2534 711.1194)" width="32" height="32"/>
			<rect x="192.157" y="287.837" transform="matrix(-0.7071 -0.7071 0.7071 -0.7071 140.5011 665.8714)" width="32" height="32"/>
		</g>
	</g>
</g>
<g>
</g>
<g>
</g>
<g>
</g>
<g>
</g>
<g>
</g>
<g>
</g>
<g>
</g>
<g>
</g>
<g>
</g>
<g>
</g>
<g>
</g>
<g>
</g>
<g>
</g>
<g>
</g>
<g>
</g>
</svg>
