<?xml version="1.0" encoding="iso-8859-1"?>
<!-- Generator: Adobe Illustrator 19.0.0, SVG Export Plug-In . SVG Version: 6.00 Build 0)  -->
<svg version="1.1" id="Capa_1" xmlns="http://www.w3.org/2000/svg" xmlns:xlink="http://www.w3.org/1999/xlink" x="0px" y="0px"
	 viewBox="0 0 512 512" style="enable-background:new 0 0 512 512;" xml:space="preserve">
<g>
	<g>
		<path d="M195.365,269.009l-39.384-51.131c-2.521-3.27-7.214-3.882-10.49-1.361c-3.273,2.521-3.882,7.217-1.361,10.49l38.211,49.61
			L74.786,416.253V136.98l36.781,47.755c2.521,3.271,7.215,3.881,10.489,1.361c3.273-2.521,3.882-7.217,1.361-10.49l-41.249-53.554
			c-3.309-4.295-8.764-5.94-13.894-4.193c-5.131,1.748-8.447,6.379-8.447,11.8v293.916c0,5.422,3.316,10.053,8.447,11.801
			c1.362,0.464,2.744,0.688,4.105,0.688c3.769,0,7.359-1.726,9.79-4.882l113.196-146.96
			C198.815,279.744,198.815,273.488,195.365,269.009z"/>
	</g>
</g>
<g>
	<g>
		<path d="M444.693,280.729c4.131,0,7.479-3.348,7.479-7.479V129.658c0-5.421-3.316-10.052-8.447-11.8
			c-5.133-1.747-10.586-0.102-13.894,4.194L316.636,269.011c-3.449,4.478-3.449,10.734,0.001,15.213l113.194,146.959
			c2.432,3.156,6.021,4.881,9.79,4.881c1.36,0,2.744-0.225,4.104-0.688c5.131-1.748,8.447-6.38,8.447-11.801v-97.103
			c0-4.13-3.348-7.479-7.479-7.479c-4.131,0-7.479,3.348-7.479,7.479v89.782L329.661,276.617L437.214,136.98v136.27
			C437.214,277.38,440.563,280.729,444.693,280.729z"/>
	</g>
</g>
<g>
	<g>
		<path d="M256,62.133c-15.385,0-27.9,12.516-27.9,27.9c0,15.384,12.515,27.9,27.9,27.9c15.384,0,27.9-12.516,27.9-27.9
			C283.901,74.649,271.385,62.133,256,62.133z M256,102.974c-7.136,0-12.941-5.806-12.941-12.942
			c0-7.136,5.805-12.941,12.941-12.941s12.941,5.806,12.941,12.941C268.942,97.169,263.136,102.974,256,102.974z"/>
	</g>
</g>
<g>
	<g>
		<path d="M256,140.946c-15.385,0-27.9,12.515-27.9,27.9c0,15.384,12.515,27.9,27.9,27.9c15.384,0,27.9-12.516,27.9-27.9
			S271.385,140.946,256,140.946z M256,181.788c-7.136,0-12.941-5.805-12.941-12.941c0-7.137,5.805-12.942,12.941-12.942
			s12.941,5.805,12.941,12.942C268.942,175.983,263.136,181.788,256,181.788z"/>
	</g>
</g>
<g>
	<g>
		<path d="M256,219.76c-15.385,0-27.9,12.516-27.9,27.9c0,15.384,12.515,27.9,27.9,27.9c15.384,0,27.9-12.516,27.9-27.9
			C283.901,232.276,271.385,219.76,256,219.76z M256,260.601c-7.136,0-12.941-5.806-12.941-12.942s5.805-12.941,12.941-12.941
			s12.941,5.805,12.941,12.941C268.942,254.796,263.136,260.601,256,260.601z"/>
	</g>
</g>
<g>
	<g>
		<path d="M256,298.573c-15.385,0-27.9,12.516-27.9,27.9c0,15.384,12.515,27.9,27.9,27.9c15.384,0,27.9-12.516,27.9-27.9
			C283.901,311.089,271.385,298.573,256,298.573z M256,339.414c-7.136,0-12.941-5.806-12.941-12.942s5.805-12.941,12.941-12.941
			s12.941,5.806,12.941,12.941C268.942,333.609,263.136,339.414,256,339.414z"/>
	</g>
</g>
<g>
	<g>
		<path d="M256,377.387c-15.385,0-27.9,12.516-27.9,27.9c0,15.384,12.515,27.9,27.9,27.9c15.384,0,27.9-12.516,27.9-27.9
			S271.385,377.387,256,377.387z M256,418.228c-7.136,0-12.941-5.806-12.941-12.942c0-7.136,5.805-12.941,12.941-12.941
			s12.941,5.804,12.941,12.941C268.942,412.423,263.136,418.228,256,418.228z"/>
	</g>
</g>
<g>
	<g>
		<path d="M256.003,456.2c-15.385,0-27.901,12.516-27.901,27.9c0,15.384,12.516,27.9,27.901,27.9c15.384,0,27.9-12.516,27.9-27.9
			C283.903,468.716,271.388,456.2,256.003,456.2z M256.003,497.04c-7.137,0-12.942-5.805-12.942-12.941
			c0-7.136,5.805-12.941,12.942-12.941c7.136,0,12.941,5.805,12.941,12.941C268.944,491.235,263.138,497.04,256.003,497.04z"/>
	</g>
</g>
<g>
	<g>
		<path d="M374.737,31.626c-4.079-0.692-7.931,2.058-8.619,6.131l-3.14,18.616C338.919,21.375,298.804,0,256,0
			c-47.384,0-90.987,25.832-113.796,67.414c-1.986,3.622-0.66,8.168,2.962,10.155c1.141,0.626,2.374,0.923,3.59,0.923
			c2.643,0,5.204-1.403,6.565-3.884c20.181-36.793,58.76-59.65,100.68-59.65c37.903,0,73.427,18.948,94.708,49.967l-23.082-7.848
			c-3.908-1.331-8.158,0.763-9.489,4.674c-1.33,3.911,0.763,8.159,4.674,9.489l41.643,14.158c0.784,0.267,1.597,0.398,2.407,0.398
			c1.334,0,2.661-0.357,3.832-1.057c1.883-1.123,3.179-3.017,3.543-5.179l6.632-39.317
			C381.557,36.172,378.812,32.313,374.737,31.626z"/>
	</g>
</g>
<g>
</g>
<g>
</g>
<g>
</g>
<g>
</g>
<g>
</g>
<g>
</g>
<g>
</g>
<g>
</g>
<g>
</g>
<g>
</g>
<g>
</g>
<g>
</g>
<g>
</g>
<g>
</g>
<g>
</g>
</svg>
